# AST/ASF file generated using VICON BodyLanguage
# -----------------------------------------------
:version 1.10
:name VICON
:units
  mass 1.0
  length 0.45
  angle deg
:documentation
   .ast/.asf automatically generated from VICON data using
   VICON BodyBuilder and BodyLanguage model FoxedUp or BRILLIANT.MOD
:root
   order TX TY TZ RX RY RZ
   axis XYZ
   position 0 0 0  
   orientation 0 -0 0 
:bonedata
  begin
     id 1 
     name lhipjoint
     direction 0.515797 -0.759363 0.396637 
     length 2.47888 
     axis 0 -0 0  XYZ
  end
  begin
     id 2 
     name lfemur
     direction 0.34202 -0.939693 0  
     length 6.81885  
     axis 0 -0 20  XYZ
    dof rx ry rz
    limits (-160.0 20.0)
           (-70.0 70.0)
           (-60.0 70.0)
  end
  begin
     id 3 
     name ltibia
     direction 0.342037 -0.939687 0   
     length 7.89258   
     axis 0 -0 20   XYZ
    dof rx
    limits (-10.0 170.0)
  end
  begin
     id 4 
     name lfoot
     direction 0.173497 -0.476678 0.861787   
     length 2.51543   
     axis -90 -1.13533e-015 20   XYZ
    dof rx rz
    limits (-45.0 90.0)
           (-70.0 20.0)
  end
  begin
     id 5 
     name ltoes
     direction 1.53564e-011 -4.21897e-011 1   
     length 1.21388   
     axis -90 -1.13533e-015 20   XYZ
    dof rx
    limits (-90.0 20.0)
  end
  begin
     id 6 
     name rhipjoint
     direction -0.489454 -0.772941 0.403729   
     length 2.43534  
     axis 0 -0 0  XYZ 
  end
  begin
     id 7 
     name rfemur
     direction -0.34202 -0.939693 0   
     length 7.10357   
     axis 0 -0 -20   XYZ
    dof rx ry rz
    limits (-160.0 20.0)
           (-70.0 70.0)
           (-70.0 60.0)
  end
  begin
     id 8 
     name rtibia
     direction -0.34202 -0.939693 0   
     length 9.16127   
     axis 0 -0 -20   XYZ
    dof rx
    limits (-10.0 170.0)
 end
 begin
     id 9 
     name rfoot
     direction -0.270974 -0.748671 0.605033   
     length 1.74894  
     axis -90 1.13533e-015 -20   XYZ
    dof rx rz
    limits (-45.0 90.0)
           (-20.0 70.0)
  end
  begin
     id 10 
     name rtoes
     direction -1.53557e-011 -4.21759e-011 1   
     length 0.787585   
     axis -90 1.13533e-015 -20   XYZ
    dof rx
    limits (-90.0 20.0)
  end
  begin
     id 11 
     name lowerback
     direction -0.0140249 0.999561 0.0260968   
     length 2.16963   
     axis 0 -0 0   XYZ
    dof rx ry rz
    limits (-20.0 45.0)
           (-30.0 30.0)
           (-30.0 30.0)
  end
  begin
     id 12 
     name upperback
     direction 0.00860018 0.999959 -0.002711   
     length 2.1726   
     axis 0 -0 0   XYZ
    dof rx ry rz
    limits (-20.0 45.0)
           (-30.0 30.0)
           (-30.0 30.0)
  end
  begin
     id 13 
     name thorax
     direction 0.015211 0.999782 -0.0143191   
     length 2.17061   
     axis 0 -0 0   XYZ
    dof rx ry rz
    limits (-20.0 45.0)
           (-30.0 30.0)
           (-30.0 30.0)
  end
  begin
     id 14 
     name lowerneck
     direction -0.0140143 0.999447 0.030145   
     length 2.26749   
     axis 0 -0 0   XYZ
    dof rx ry rz
    limits (-20.0 45.0)
           (-30.0 30.0)
           (-30.0 30.0)
  end
  begin
     id 15 
     name upperneck
     direction 0.118062 0.961438 -0.248392   
     length 2.22728   
     axis 0 -0 0   XYZ
    dof rx ry rz
    limits (-20.0 45.0)
           (-30.0 30.0)
           (-30.0 30.0)
  end
  begin
     id 16
     name head
     direction 0.0431885 0.9954 -0.085514  
     length 2.28786  
     axis 0 -0 0   XYZ
    dof rx ry rz
    limits (-20.0 45.0)
           (-30.0 30.0)
           (-30.0 30.0)
  end
  begin
     id 17 
     name lclavicle
     direction 0.912126 0.409548 0.0172323  
     length 4.31571  
     axis 0 -0 0   XYZ
    dof ry rz
    limits (-20.0 10.0)
           (0.0 20.0)
  end
  begin
     id 18 
     name lhumerus
     direction 1 -4.48977e-011 1.93091e-027   
     length 5.13658   
     axis 180 -30 -90   XYZ
    dof rx ry rz
    limits (-60.0 90.0)
           (-90.0 90.0)
           (-90.0 90.0)
  end
  begin
     id 19
     name lradius
     direction 1 -4.48916e-011 6.84018e-027   
     length 3.22473   
     axis 180 -30 -90   XYZ
    dof rx
    limits (-10.0 170.0)
  end
  begin
     id 20
     name lwrist
     direction 1 -4.48987e-011 7.01981e-027   
     length 1.61236   
     axis -4.37994e-015 90 90   XYZ
    dof ry
    limits (-180.0 0.0)
 end
  begin
     id 21 
     name lhand
     direction 1 -4.49037e-011 1.40335e-026   
     length 0.936406   
     axis -8.96029e-015 90 90   XYZ
    dof rx rz
    limits (-90.0 90.0)
           (-45.0 45.0)
  end
  begin
     id 22 
     name lfingers
     direction 1 -4.48886e-011 2.8104e-026   
     length 0.754955   
     axis -1.79203e-014 90 90   XYZ
    dof rx
    limits (0.0 90.0)
  end
  begin
     id 23
     name lthumb
     direction 0.707107 -6.34937e-011 0.707107   
     length 1.08397   
     axis -90 45 -4.48555e-014   XYZ
    dof rx rz
    limits (-45.0 45.0)
           (-45.0 45.0)
  end
  begin
     id 24 
     name rclavicle
     direction -0.947962 0.317997 0.0156638   
     length 4.86918  
     axis 0 -0 0   XYZ 
    dof ry rz
    limits (-10.0 20.0)
           (-20.0 0.0)
  end
  begin
     id 25 
     name rhumerus
     direction -1 -4.48951e-011 2.80534e-018  
     length 5.60911   
     axis 180 30 90   XYZ
    dof rx ry rz
    limits (-90.0 60.0)
           (-90.0 90.0)
           (-90.0 90.0)
  end
  begin
     id 26 
     name rradius
     direction -1 -4.4898e-011 2.11315e-027   
     length 3.38704   
     axis 180 30 90   XYZ
    dof rx
    limits (-10.0 170.0)
  end
  begin
     id 27 
     name rwrist
     direction -1 -4.48933e-011 7.02314e-027   
     length 1.69352   
     axis -4.37994e-015 -90 -90   XYZ
    dof ry
    limits (-180.0 0.0)
  end
  begin
     id 28
     name rhand
     direction -1 -4.48937e-011 1.40458e-026   
     length 0.755878   
     axis -8.96029e-015 -90 -90   XYZ
    dof rx rz
    limits (-90.0 90.0)
           (-45.0 45.0)
  end
  begin
     id 29
     name rfingers
     direction -1 -4.4901e-011 2.80737e-026   
     length 0.609409   
     axis -1.79203e-014 -90 -90   XYZ
    dof rx
    limits (0.0 90.0)
  end
  begin
     id 30
     name rthumb
     direction -0.707107 -6.34968e-011 0.707107   
     length 0.874992   
     axis -90 -45 4.48555e-014   XYZ
    dof rx rz
    limits (-45.0 45.0)
           (-45.0 45.0)
  end
:hierarchy
  begin
    root lhipjoint rhipjoint lowerback
    lhipjoint lfemur
    lfemur ltibia
    ltibia lfoot
    lfoot ltoes
    rhipjoint rfemur
    rfemur rtibia
    rtibia rfoot
    rfoot rtoes
    lowerback upperback
    upperback thorax
    thorax lowerneck lclavicle rclavicle
    lowerneck upperneck
    upperneck head
    lclavicle lhumerus
    lhumerus lradius
    lradius lwrist
    lwrist lhand lthumb
    lhand lfingers
    rclavicle rhumerus
    rhumerus rradius
    rradius rwrist
    rwrist rhand rthumb
    rhand rfingers
  end

#!OML:ASF C:\ViconDB\ViconDB\414\Spring2016\041811\Spring2016.ASF
:FULLY-SPECIFIED
:DEGREES
62
root 8.03126 18.3495 3.10179 -172.848 -2.83444 180.495
lowerback 10.5881 0.957677 -1.70528
upperback 3.064 0.816152 -0.118189
thorax -2.76873 0.293775 0.738727
lowerneck -16.8574 2.41768 -4.90206
upperneck 17.3356 2.23145 9.83232
head 7.95295 1.60808 4.35088
rclavicle -5.71506e-015 3.77691e-015
rhumerus -39.2297 -8.17293 -86.7276
rradius 43.6834
rwrist 30.7159
rhand -32.9903 -14.5896
rfingers 7.12502
rthumb -6.20483 -44.4787
lclavicle -5.71506e-015 3.77691e-015
lhumerus -34.0487 -3.46822 86.2732
lradius 27.2672
lwrist -29.6726
lhand -34.3613 20.4398
lfingers 7.12502
lthumb -7.5283 50.2859
rfemur -8.80118 -10.1682 20.5105
rtibia 17.4219
rfoot -14.618 -4.97322
rtoes -12.6714
lfemur -17.5257 -5.73284 -12.8244
ltibia 26.2275
lfoot -18.1296 2.568
ltoes -8.50146
63
root 8.03079 18.3405 3.14815 -172.4 -2.86777 180.603
lowerback 11.3239 0.93398 -1.45517
upperback 3.11207 0.775164 -0.162932
thorax -3.11765 0.265676 0.550379
lowerneck -16.888 2.34912 -4.9383
upperneck 16.9112 2.16571 9.94174
head 7.82225 1.5891 4.37404
rclavicle -1.0138e-014 3.18055e-015
rhumerus -39.5875 -7.63651 -86.7812
rradius 43.9136
rwrist 30.3972
rhand -33.3252 -15.2845
rfingers 7.12502
rthumb -6.52819 -45.1639
lclavicle -1.0138e-014 3.18055e-015
lhumerus -34.2617 -3.45633 85.7613
lradius 27.0469
lwrist -30.4037
lhand -34.1767 20.7183
lfingers 7.12502
lthumb -7.35014 50.5707
rfemur -10.1135 -10.2263 20.736
rtibia 18.5087
rfoot -14.5361 -5.19446
rtoes -12.5014
lfemur -18.693 -5.04456 -12.6728
ltibia 26.9557
lfoot -17.9901 1.92326
ltoes -8.50911
64
root 8.03111 18.3259 3.19655 -171.964 -2.92453 180.718
lowerback 12.1007 0.919798 -1.21699
upperback 3.1712 0.746591 -0.189584
thorax -3.47755 0.241835 0.386005
lowerneck -16.9184 2.24838 -5.03283
upperneck 16.5063 2.07425 10.0353
head 7.69996 1.55237 4.39972
rclavicle 1.03865e-014 1.59028e-015
rhumerus -40.0481 -7.34907 -86.6545
rradius 44.1724
rwrist 30.2626
rhand -33.4876 -15.3472
rfingers 7.12502
rthumb -6.6849 -45.2217
lclavicle 1.03865e-014 1.59028e-015
lhumerus -34.5105 -3.48946 85.3252
lradius 26.7641
lwrist -30.8906
lhand -34.2102 21.0014
lfingers 7.12502
lthumb -7.38245 50.8526
rfemur -11.4792 -10.2587 20.9786
rtibia 19.7074
rfoot -14.3797 -5.40468
rtoes -12.3894
lfemur -19.8856 -4.49189 -12.5098
ltibia 27.768
lfoot -17.9236 1.34742
ltoes -8.4003
65
root 8.03345 18.309 3.24559 -171.451 -2.9548 180.806
lowerback 12.8176 0.926223 -1.12655
upperback 3.24373 0.73331 -0.146556
thorax -3.79299 0.225342 0.376253
lowerneck -16.981 2.07106 -5.29175
upperneck 16.0623 1.92181 10.1652
head 7.57367 1.4816 4.45885
rclavicle -1.08835e-014 -9.93923e-016
rhumerus -40.516 -6.87448 -86.5254
rradius 44.5544
rwrist 29.5042
rhand -33.5661 -15.23
rfingers 7.12502
rthumb -6.76075 -45.1021
lclavicle -1.08835e-014 -9.93923e-016
lhumerus -34.6833 -3.65269 85.0039
lradius 26.3705
lwrist -31.1429
lhand -34.2006 20.8647
lfingers 7.12502
lthumb -7.37319 50.7162
rfemur -12.968 -10.2345 21.2132
rtibia 20.9594
rfoot -14.2103 -5.59166
rtoes -12.2949
lfemur -21.2293 -3.85063 -12.3812
ltibia 28.7007
lfoot -17.8877 0.706222
ltoes -8.31474
66
root 8.03542 18.2851 3.29567 -170.946 -2.99333 180.967
lowerback 13.5764 0.950402 -0.934699
upperback 3.33113 0.754907 -0.107724
thorax -4.11354 0.223512 0.299291
lowerneck -17.1266 1.87245 -5.56684
upperneck 15.6817 1.7106 10.4265
head 7.48764 1.39359 4.56302
rclavicle -3.52843e-015 -2.18663e-015
rhumerus -40.9838 -6.58947 -86.3604
rradius 44.8782
rwrist 29.052
rhand -33.732 -15.2631
rfingers 7.12502
rthumb -6.92088 -45.13
lclavicle -3.52843e-015 -2.18663e-015
lhumerus -34.8621 -3.87338 84.6596
lradius 26.0701
lwrist -31.4209
lhand -33.9592 20.8691
lfingers 7.12502
lthumb -7.14014 50.7287
rfemur -14.5045 -10.2563 21.5309
rtibia 22.284
rfoot -14.071 -5.83807
rtoes -12.1715
lfemur -22.6103 -3.18389 -12.1756
ltibia 29.7039
lfoot -17.8651 0.0150382
ltoes -8.2558
67
root 8.03808 18.2625 3.34692 -170.391 -3.07558 181.156
lowerback 14.3761 0.939154 -0.702594
upperback 3.36619 0.743353 -0.0538325
thorax -4.50922 0.206586 0.220345
lowerneck -17.2881 1.64776 -5.92341
upperneck 15.3465 1.47745 10.7175
head 7.42148 1.2931 4.6906
rclavicle 5.11871e-015 7.95139e-015
rhumerus -41.6163 -6.09552 -86.3159
rradius 45.2969
rwrist 28.4569
rhand -33.7626 -15.4705
rfingers 7.12502
rthumb -6.95038 -45.3364
lclavicle 5.11871e-015 7.95139e-015
lhumerus -35.105 -4.0385 84.2975
lradius 25.6885
lwrist -31.9046
lhand -33.7373 21.1764
lfingers 7.12502
lthumb -6.92598 51.0431
rfemur -16.1611 -10.3974 21.8971
rtibia 23.7038
rfoot -13.951 -6.15703
rtoes -12.0621
lfemur -24.1289 -2.3734 -12.0031
ltibia 30.8118
lfoot -17.8105 -0.682681
ltoes -8.59754
68
root 8.03856 18.2363 3.39396 -169.758 -3.18717 181.303
lowerback 15.0983 0.930166 -0.396125
upperback 3.33515 0.757747 -0.0563035
thorax -4.92979 0.204753 0.0356465
lowerneck -17.1326 1.36226 -6.27368
upperneck 14.9298 1.16678 10.9385
head 7.28336 1.14056 4.77552
rclavicle 8.05078e-015 -8.34896e-015
rhumerus -42.4852 -5.93248 -86.1338
rradius 45.7483
rwrist 28.2739
rhand -33.7852 -15.3634
rfingers 7.12502
rthumb -6.97227 -45.2286
lclavicle 8.05078e-015 -8.34896e-015
lhumerus -35.5363 -4.43305 83.9398
lradius 25.3449
lwrist -32.2707
lhand -33.6785 21.0877
lfingers 7.12502
lthumb -6.86922 50.9563
rfemur -17.9023 -10.4122 22.2203
rtibia 25.1659
rfoot -13.7065 -6.39529
rtoes -11.9324
lfemur -25.739 -1.75703 -11.8546
ltibia 31.9757
lfoot -17.8449 -1.3471
ltoes -8.57759
69
root 8.03816 18.1977 3.44508 -169.136 -3.29246 181.468
lowerback 15.8678 0.912078 -0.121207
upperback 3.37159 0.750535 -0.0466066
thorax -5.30439 0.187141 -0.114354
lowerneck -17.3838 1.10371 -6.45077
upperneck 14.6804 0.861245 11.1127
head 7.27413 1.00684 4.83097
rclavicle 7.95139e-015 3.18055e-015
rhumerus -43.2347 -5.51785 -86.1272
rradius 46.1849
rwrist 27.7334
rhand -33.9365 -15.7731
rfingers 7.12502
rthumb -7.11829 -45.6334
lclavicle 7.95139e-015 3.18055e-015
lhumerus -35.9148 -4.79877 83.5237
lradius 25.1359
lwrist -32.4102
lhand -33.2869 21.0361
lfingers 7.12502
lthumb -6.49121 50.9166
rfemur -19.6898 -10.6731 22.5834
rtibia 26.6551
rfoot -13.6542 -6.7884
rtoes -11.845
lfemur -27.392 -1.28382 -11.6632
ltibia 33.2038
lfoot -17.9215 -1.90673
ltoes -8.37615
70
root 8.04172 18.1587 3.49541 -168.614 -3.32574 181.603
lowerback 16.7582 0.917605 0.0746806
upperback 3.4424 0.756499 -0.0358577
thorax -5.70785 0.172337 -0.221806
lowerneck -17.4499 0.807892 -6.90193
upperneck 14.1996 0.536274 11.547
head 7.15871 0.864406 5.00732
rclavicle -6.26172e-015 1.63003e-014
rhumerus -44.037 -5.04449 -86.1258
rradius 46.6707
rwrist 27.1458
rhand -34.098 -15.7889
rfingers 7.12502
rthumb -7.27418 -45.6438
lclavicle -6.26172e-015 1.63003e-014
lhumerus -36.2461 -5.0835 83.0947
lradius 24.7519
lwrist -32.7497
lhand -33.1597 20.8431
lfingers 7.12502
lthumb -6.36842 50.7274
rfemur -21.3809 -10.5392 22.8739
rtibia 28.2013
rfoot -13.3602 -6.98675
rtoes -11.7267
lfemur -28.9379 -0.597054 -11.5608
ltibia 34.4567
lfoot -18.0082 -2.5656
ltoes -8.37115
71
root 8.04435 18.1206 3.5426 -168.025 -3.34146 181.728
lowerback 17.6301 0.949851 0.222342
upperback 3.46081 0.800845 -0.00252354
thorax -6.15644 0.179007 -0.286884
lowerneck -17.567 0.482403 -7.17769
upperneck 13.8563 0.174693 11.7085
head 7.10482 0.693852 5.06365
rclavicle -1.88845e-014 3.77691e-015
rhumerus -45.0417 -4.60836 -86.1606
rradius 47.2527
rwrist 26.5041
rhand -34.3072 -16.0646
rfingers 7.12502
rthumb -7.47612 -45.9125
lclavicle -1.88845e-014 3.77691e-015
lhumerus -36.671 -5.38836 82.7364
lradius 24.3631
lwrist -33.1436
lhand -33.1067 21.0645
lfingers 7.12502
lthumb -6.31721 50.9503
rfemur -23.1816 -10.5365 23.1653
rtibia 29.8016
rfoot -13.1944 -7.29648
rtoes -11.5012
lfemur -30.5651 -0.0432341 -11.4728
ltibia 35.756
lfoot -18.14 -3.0636
ltoes -8.38281
72
root 8.04847 18.0708 3.59714 -167.545 -3.50653 181.84
lowerback 18.718 0.942714 0.333507
upperback 3.49779 0.786063 0.106194
thorax -6.70177 0.153182 -0.23873
lowerneck -17.5707 0.135103 -7.74486
upperneck 13.3686 -0.18121 12.1181
head 6.98608 0.527154 5.24775
rclavicle -1.43125e-014 9.93923e-017
rhumerus -46.1075 -4.09942 -86.1898
rradius 47.8951
rwrist 25.8575
rhand -34.5973 -16.492
rfingers 7.12502
rthumb -7.75609 -46.3298
lclavicle -1.43125e-014 9.93923e-017
lhumerus -37.1993 -5.70945 82.5546
lradius 24.0653
lwrist -33.0604
lhand -33.0874 21.0944
lfingers 7.12502
lthumb -6.29857 50.9808
rfemur -24.8779 -10.6419 23.4673
rtibia 31.4353
rfoot -12.9476 -7.59067
rtoes -11.3247
lfemur -32.149 0.429998 -11.3991
ltibia 37.103
lfoot -18.2788 -3.59734
ltoes -8.48244
